PathFileType	4	(X/Y/Z)	/Users/itak/Documents/Research/Walk-IL/dataset/trc/00325_00011.trc
DataRate	CameraRate	NumFrames	NumMarkers	Units	OrigDataRate	OrigDataStartFrame	OrigNumFrames
100.000000	100.000000	4	54	mm	100.000000	108	433
Frame#	Time	RPSI			LPSI			L3			STRN			T10			C7			CLAV			RBAK			LBAK			LSHO			LUPA			LAEL			LAOL			LWPS			LFRA			LIFD			LHPS			LHTS			RSHO			RUPA			RAEL			RAOL			RWTS			RWPS			RFRA			RIFD			RHTS			RHPS			RBHD			LFHD			RFHD			LBHD			LHIP			RHIP			RASI			LASI			LKNE			LTHI			LANK			LTIP			LTOE			LMT1			LMT5			LHEE			RKNE			RANK			RTIP			RTOE			RMT1			RMT5			RHEE			LWTS			RTHI			*53			
		X1	Y1	Z1	X2	Y2	Z2	X3	Y3	Z3	X4	Y4	Z4	X5	Y5	Z5	X6	Y6	Z6	X7	Y7	Z7	X8	Y8	Z8	X9	Y9	Z9	X10	Y10	Z10	X11	Y11	Z11	X12	Y12	Z12	X13	Y13	Z13	X14	Y14	Z14	X15	Y15	Z15	X16	Y16	Z16	X17	Y17	Z17	X18	Y18	Z18	X19	Y19	Z19	X20	Y20	Z20	X21	Y21	Z21	X22	Y22	Z22	X23	Y23	Z23	X24	Y24	Z24	X25	Y25	Z25	X26	Y26	Z26	X27	Y27	Z27	X28	Y28	Z28	X29	Y29	Z29	X30	Y30	Z30	X31	Y31	Z31	X32	Y32	Z32	X33	Y33	Z33	X34	Y34	Z34	X35	Y35	Z35	X36	Y36	Z36	X37	Y37	Z37	X38	Y38	Z38	X39	Y39	Z39	X40	Y40	Z40	X41	Y41	Z41	X42	Y42	Z42	X43	Y43	Z43	X44	Y44	Z44	X45	Y45	Z45	X46	Y46	Z46	X47	Y47	Z47	X48	Y48	Z48	X49	Y49	Z49	X50	Y50	Z50	X51	Y51	Z51	X52	Y52	Z52	X53	Y53	Z53	X54	Y54	Z54	

109	1.08	-1406.048583984375	986.4896850585938	106.0862808227539	-1399.58056640625	987.8534545898438	-22.73975563049316	-1400.924072265625	1034.3359375	45.21947479248047	-1180.744140625	1215.820434570312	38.14691543579102	-1418.99072265625	1151.064208984375	32.65879058837891	-1377.693725585938	1399.527221679688	12.29141998291016	-1221.60791015625	1341.668823242188	29.26720809936523	-1428.172485351562	1262.440551757812	81.79816436767578	-1381.186645507812	1359.713623046875	-90.30905151367188	-1290.827270507812	1375.652954101562	-140.1074371337891	-1300.658081054688	1254.267456054688	-206.8508605957031	-1278.669799804688	1049.764770507812	-212.4309997558594	-1347.679443359375	1037.910034179688	-164.9336853027344	-1226.9697265625	794.9306030273438	-213.6714172363281	-1263.494995117188	945.5591430664062	-215.3563995361328	-1174.804443359375	658.6835327148438	-152.5404815673828	-1231.33740234375	724.54150390625	-208.2247772216797	-1180.872314453125	727.61181640625	-168.6161346435547	-1329.508911132812	1390.465209960938	180.2396240234375	-1341.39892578125	1325.806030273438	245.1011199951172	-1322.700561523438	1056.918334960938	277.5657958984375	-1370.95068359375	1050.072631835938	196.3736724853516	-1217.084594726562	830.1088256835938	214.8001098632812	-1243.814575195312	813.0872802734375	284.1607666015625	-1295.048828125	989.5833129882812	281.94482421875	-1199.8876953125	657.2852783203125	217.5417785644531	-1187.044189453125	729.3506469726562	222.7029266357422	-1229.282958984375	729.6303100585938	277.2404479980469	-1347.901977539062	1603.061279296875	89.82745361328125	-1167.623779296875	1618.69873046875	-15.7610502243042	-1185.651733398438	1620.215576171875	83.65579986572266	-1348.509887695312	1594.594604492188	-54.75352096557617	-1317.271728515625	921.6571044921875	-124.6962661743164	-1336.64404296875	924.1209106445312	217.7378082275391	-1227.0625	945.177978515625	179.1774749755859	-1195.630615234375	938.29296875	-60.99504852294922	-1302.34423828125	460.29833984375	-119.3001480102539	-1291.3671875	599.67431640625	-124.4391021728516	-1440.124145507812	48.76686096191406	-124.5274810791016	-1369.849731445312	250.6468658447266	-133.3705291748047	-1234.919555664062	45.70608520507812	-60.35901260375977	-1304.291259765625	33.54948043823242	-20.25839424133301	-1312.902221679688	45.14056777954102	-134.3580627441406	-1474.793823242188	42.68772125244141	-56.86024475097656	-1335.47314453125	454.0018310546875	178.4408416748047	-1442.163940429688	55.40684127807617	133.2128295898438	-1342.289794921875	334.3909606933594	159.8147888183594	-1250.092407226562	44.89375305175781	83.05991363525391	-1305.448364257812	40.80330657958984	40.38474655151367	-1340.303466796875	44.23865509033203	151.873779296875	-1492.605834960938	55.15954971313477	84.89385223388672	-1194.177856445312	805.088134765625	-153.6093444824219	-1280.955932617188	708.2560424804688	213.9465789794922	nan	nan	nan	
110	1.09	-1404.820556640625	986.1419677734375	107.4849700927734	-1398.390991210938	987.5697021484375	-21.3924617767334	-1399.652709960938	1034.060302734375	46.66738510131836	-1179.270385742188	1215.28466796875	39.3072395324707	-1417.445434570312	1150.68896484375	34.02363204956055	-1376.060546875	1399.156982421875	13.54292392730713	-1220.086303710938	1341.170776367188	30.3756217956543	-1426.670043945312	1262.173583984375	83.16499328613281	-1379.75634765625	1359.359497070312	-89.04664611816406	-1289.44921875	1375.224975585938	-138.8984222412109	-1299.550170898438	1253.9814453125	-205.7505340576172	-1278.15478515625	1049.440185546875	-211.6465454101562	-1347.060668945312	1037.707641601562	-164.0465240478516	-1226.901489257812	794.4737548828125	-213.1716003417969	-1263.194580078125	945.2112426757812	-214.7261199951172	-1174.715698242188	657.748046875	-151.5564270019531	-1231.292846679688	724.0947875976562	-207.62890625	-1180.761108398438	727.1836547851562	-168.2397613525391	-1327.771118164062	1390.14599609375	181.4438018798828	-1339.723022460938	1325.640869140625	246.3833618164062	-1321.031494140625	1056.79541015625	278.8900451660156	-1369.425048828125	1049.89111328125	197.7710876464844	-1215.605224609375	829.88037109375	215.9277496337891	-1242.099731445312	812.8967895507812	285.3616638183594	-1293.309692382812	989.410400390625	283.1961364746094	-1198.511840820312	657.010498046875	218.6879577636719	-1185.697509765625	729.0325317382812	223.7932434082031	-1227.65380859375	729.3965454101562	278.4485778808594	-1345.150390625	1603.029907226562	91.33081817626953	-1165.522094726562	1617.615234375	-15.61778545379639	-1182.776733398438	1619.30810546875	83.90280914306641	-1346.823608398438	1594.487060546875	-53.34097671508789	-1316.027587890625	921.4006958007812	-123.449333190918	-1335.372802734375	923.6267700195312	219.0428619384766	-1225.869262695312	944.8206176757812	180.6211547851562	-1194.628784179688	937.8567504882812	-59.55730056762695	-1297.640502929688	459.5691833496094	-117.1932678222656	-1287.979736328125	598.8302612304688	-122.8914413452148	-1440.01123046875	48.86782073974609	-124.5325317382812	-1367.311279296875	250.3734588623047	-132.3598022460938	-1234.916381835938	45.72580718994141	-60.38523483276367	-1304.283325195312	33.54875183105469	-20.29120254516602	-1312.8154296875	45.06380462646484	-134.3759613037109	-1474.823364257812	42.84490585327148	-56.85454940795898	-1333.533935546875	453.4285888671875	179.2135620117188	-1442.180053710938	55.3802490234375	133.2100219726562	-1340.7080078125	333.7450561523438	160.119384765625	-1250.140502929688	44.99569702148438	83.03449249267578	-1305.485717773438	40.75041961669922	40.377197265625	-1340.33251953125	44.24552154541016	151.8501129150391	-1492.624145507812	55.16264724731445	84.89905548095703	-1193.9541015625	804.5476684570312	-153.2810516357422	-1279.6357421875	707.7135009765625	215.0931549072266	nan	nan	nan	
111	1.1	-1403.612426757812	985.7091064453125	108.9164123535156	-1397.265991210938	987.1581420898438	-20.02822113037109	-1398.4111328125	1033.7099609375	48.13326644897461	-1177.785400390625	1214.6220703125	40.47436141967773	-1415.887573242188	1150.257568359375	35.430419921875	-1374.345825195312	1398.735717773438	14.87301635742188	-1218.509887695312	1340.548828125	31.50066184997559	-1425.127075195312	1261.864013671875	84.63997650146484	-1378.302978515625	1358.958251953125	-87.71246337890625	-1288.04931640625	1374.726318359375	-137.6401977539062	-1298.475830078125	1253.639770507812	-204.6162261962891	-1277.68115234375	1049.05908203125	-210.8495635986328	-1346.497192382812	1037.44384765625	-163.1644744873047	-1226.931518554688	793.9471435546875	-212.6824951171875	-1262.95458984375	944.7946166992188	-214.0890197753906	-1174.839233398438	656.5127563476562	-150.4975433349609	-1231.33349609375	723.572998046875	-207.0291290283203	-1180.758178710938	726.6948852539062	-167.8452911376953	-1325.893798828125	1389.759765625	182.7062683105469	-1337.908203125	1325.429443359375	247.7325439453125	-1319.235717773438	1056.625	280.3164367675781	-1367.835815429688	1049.653564453125	199.2878570556641	-1214.056274414062	829.5616455078125	217.110595703125	-1240.299926757812	812.6555786132812	286.6399230957031	-1291.449829101562	989.1913452148438	284.5268859863281	-1197.119384765625	656.6671142578125	219.9026947021484	-1184.291137695312	728.6255493164062	224.9165802001953	-1225.95654296875	729.0847778320312	279.713623046875	-1342.29345703125	1602.916381835938	92.86553955078125	-1163.352783203125	1616.455932617188	-15.45799827575684	-1179.821166992188	1618.332641601562	84.16015625	-1345.063110351562	1594.25439453125	-51.87868881225586	-1314.8671875	921.015380859375	-122.1873092651367	-1334.096313476562	923.0855712890625	220.3748016357422	-1224.68701171875	944.3831176757812	182.0638427734375	-1193.727172851562	937.3409423828125	-58.10798263549805	-1292.300659179688	458.7578125	-114.775520324707	-1284.251220703125	597.869873046875	-121.2774429321289	-1439.830688476562	49.08764266967773	-124.4861450195312	-1364.465942382812	250.1058807373047	-131.2634735107422	-1234.875244140625	45.71711730957031	-60.41313171386719	-1304.254638671875	33.56293869018555	-20.33700370788574	-1312.693603515625	44.98787307739258	-134.3861389160156	-1474.8232421875	43.21843338012695	-56.81194305419922	-1331.547119140625	452.8220520019531	180.0121459960938	-1442.20654296875	55.33864593505859	133.2049102783203	-1339.0810546875	333.0503540039062	160.4461212158203	-1250.172485351562	45.09946823120117	82.97610473632812	-1305.519165039062	40.68548583984375	40.35317993164062	-1340.365966796875	44.25112152099609	151.8190460205078	-1492.650756835938	55.15196990966797	84.90207672119141	-1193.810180664062	803.9751586914062	-152.9479827880859	-1278.240112304688	707.0802001953125	216.2274169921875	nan	nan	nan	
112	1.11	-1402.435424804688	985.1788940429688	110.3774566650391	-1396.229858398438	986.583984375	-18.6513500213623	-1397.20751953125	1033.27294921875	49.60054779052734	-1176.293212890625	1213.826782226562	41.63991546630859	-1414.343627929688	1149.781005859375	36.88151168823242	-1372.54541015625	1398.256591796875	16.2851448059082	-1216.8662109375	1339.793090820312	32.6315803527832	-1423.5322265625	1261.508666992188	86.21930694580078	-1376.826416015625	1358.505126953125	-86.30707550048828	-1286.624389648438	1374.149780273438	-136.3388214111328	-1297.444213867188	1253.226684570312	-203.4448089599609	-1277.24755859375	1048.607421875	-210.0373382568359	-1345.986694335938	1037.105346679688	-162.2764282226562	-1227.05615234375	793.3411254882812	-212.2004547119141	-1262.778564453125	944.2984619140625	-213.44287109375	-1175.31884765625	654.8946533203125	-149.3938903808594	-1231.477905273438	722.969970703125	-206.4414367675781	-1180.8623046875	726.1179809570312	-167.4372253417969	-1323.8525390625	1389.292846679688	184.0201263427734	-1335.923950195312	1325.152099609375	249.1445465087891	-1317.2880859375	1056.38525390625	281.8544921875	-1366.174072265625	1049.337280273438	200.952392578125	-1212.425659179688	829.1363525390625	218.3707580566406	-1238.40185546875	812.3427734375	288.0101928710938	-1289.45068359375	988.908935546875	285.9513244628906	-1195.688232421875	656.2467041015625	221.1747894287109	-1182.782836914062	728.1237182617188	226.0750885009766	-1224.18408203125	728.677978515625	281.0465393066406	-1339.33642578125	1602.703735351562	94.43437194824219	-1161.115112304688	1615.223510742188	-15.27565383911133	-1176.792114257812	1617.28759765625	84.43459320068359	-1343.2197265625	1593.880981445312	-50.36840057373047	-1313.814331054688	920.4600219726562	-120.9130249023438	-1332.81689453125	922.4924926757812	221.7317657470703	-1223.519897460938	943.8435668945312	183.4837493896484	-1192.93603515625	936.71484375	-56.67151260375977	-1286.298217773438	457.8678588867188	-112.0393753051758	-1280.098510742188	596.7752685546875	-119.5712432861328	-1439.575927734375	49.49712753295898	-124.355712890625	-1361.317504882812	249.8895568847656	-130.0753479003906	-1234.794555664062	45.67671203613281	-60.43874740600586	-1304.1982421875	33.59171295166016	-20.39047431945801	-1312.543701171875	44.94109725952148	-134.3825378417969	-1474.768798828125	43.90481567382812	-56.70184707641602	-1329.51171875	452.1732788085938	180.8360595703125	-1442.245361328125	55.28006362915039	133.1972351074219	-1337.411499023438	332.3058776855469	160.7955322265625	-1250.178833007812	45.20226287841797	82.87174224853516	-1305.5439453125	40.61140060424805	40.31127166748047	-1340.402465820312	44.25557708740234	151.7816772460938	-1492.689453125	55.12538909912109	84.90376281738281	-1193.739990234375	803.3663330078125	-152.5919952392578	-1276.761840820312	706.3519287109375	217.3342132568359	nan	nan	nan	
